# xmcd CD database file
#
# Track frame offsets:
#	150
#	25939
#	42358
#	73758
#	95805
#	125377
#	156314
#	185048
#	205695
#	233727
#
# Disc length: 3465 seconds
#
# Revision: 0
# Processed by: cddbd v1.4PL0 Copyright (c) Steve Scherf et al.
# Submitted via: CDex 1.50beta9
#
DISCID=8c0d870a
DTITLE=Kenny Garrett - Triology
DYEAR=1995
DGENRE=Jazz
TTITLE0=Delfeayo's Dilemma
TTITLE1=Night and Day
TTITLE2=Giant Steps
TTITLE3=A Time for Love
TTITLE4=Wayne's Thang
TTITLE5=Pressing the Issue
TTITLE6=Koranne Said
TTITLE7=Oriental Towaway Zone
TTITLE8=In Your Own Sweet Way
TTITLE9=What Is Thing Thing Called Love?
EXTD=YEAR: 1995
EXTT0=
EXTT1=
EXTT2=
EXTT3=
EXTT4=
EXTT5=
EXTT6=
EXTT7=
EXTT8=
EXTT9=
PLAYORDER=
